<?xml version="1.0" encoding="UTF-8"?>
<svg xmlns="http://www.w3.org/2000/svg" xmlns:xlink="http://www.w3.org/1999/xlink" width="3750" height="3750" viewBox="0 0 3750 3750">
<rect x="-375" y="-375" width="4500" height="4500" fill="rgb(100%, 100%, 100%)" fill-opacity="1"/>
<path fill-rule="nonzero" fill="rgb(0%, 0%, 0%)" fill-opacity="1" d="M 1547.160156 2052.558594 C 1503.609375 1991.519531 1472.691406 1914.558594 1448.199219 1851.808594 C 1425.390625 1779.710938 1405.300781 1730.75 1405.300781 1730.75 C 1405.300781 1730.75 1400.5 1783.320312 1400.171875 1860.519531 C 1403.800781 1929.308594 1418.078125 2022.289062 1473.390625 2103.75 C 1482.449219 2116.800781 1492.351562 2129.300781 1503.179688 2140.929688 C 1598.160156 2242.890625 1738.851562 2272.941406 1869.75 2259.089844 C 1998.210938 2245.488281 2160.339844 2198.160156 2234.078125 2073.640625 C 2327.5 1915.859375 2468.878906 1561.449219 2184.839844 1490.070312 C 2005.738281 1445.058594 2010.320312 1214.179688 1822.878906 1245.859375 C 1643.578125 1276.160156 1676.109375 1448.019531 1347.210938 1512.628906 C 1267.789062 1528.230469 1141.96875 1381.230469 1162.988281 1301.089844 C 1186.730469 1210.558594 1330.53125 1235.75 1434.539062 1288.980469 C 1483.648438 1314.121094 1555.199219 1290.859375 1582.53125 1244.628906 C 1638.78125 1149.480469 1484.109375 1059.511719 1476.75 1017.121094 C 1467.558594 964.230469 1464.980469 893.589844 1514.03125 868.960938 C 1577.53125 837.078125 1662.238281 859.890625 1678.390625 875.03125 C 1799.378906 988.460938 1687.761719 1093.980469 1780.808594 1140.730469 C 1824.058594 1162.460938 1921.761719 1174.171875 1953.648438 1102.269531 C 1994.46875 1010.25 1949.25 896.570312 2009.25 869.078125 C 2009.328125 869.050781 2009.410156 869.011719 2009.480469 868.980469 C 2009.570312 868.941406 2009.660156 868.898438 2009.738281 868.859375 C 2051.648438 849.050781 2122.121094 857.140625 2155.628906 886.730469 C 2190.308594 917.339844 2220.25 987.710938 2212.859375 1028.359375 C 2201.75 1089.441406 2086.261719 1136.980469 2096.261719 1241.96875 C 2103.210938 1314.921875 2170.140625 1349.460938 2235.320312 1329.660156 C 2313.289062 1305.96875 2370.640625 1222.980469 2428.25 1187.070312 C 2459.140625 1167.820312 2488.769531 1161.058594 2532.339844 1186.800781 C 2573.339844 1211.011719 2588.378906 1252.539062 2589.109375 1290.46875 C 2589.25 1306 2588.128906 1320.890625 2584.570312 1334.210938 C 2577.160156 1362.269531 2563.890625 1388.5 2546.371094 1410.101562 C 2529.949219 1431.449219 2508.46875 1448.839844 2487.828125 1462.238281 C 2436.070312 1484.960938 2399.710938 1503.390625 2399.480469 1503.5 C 2399.730469 1503.511719 2437.878906 1504.601562 2500.03125 1500.808594 C 2527.671875 1494.710938 2560.398438 1482.71875 2592.089844 1460 C 2623.519531 1436.75 2650.660156 1403.308594 2666.648438 1361.820312 C 2675.609375 1337.921875 2679.5 1313.011719 2678.878906 1288.75 C 2677.679688 1225.960938 2651.109375 1152.671875 2578 1109.488281 C 2402.128906 1005.621094 2283.75 1221.109375 2209.21875 1243.75 C 2193.949219 1248.390625 2186.660156 1244.210938 2185.640625 1233.460938 C 2180.179688 1176.058594 2282.421875 1147.671875 2301.199219 1044.410156 C 2315.441406 966.089844 2271.019531 868.820312 2215.050781 819.410156 C 2153.738281 765.300781 2043.808594 753.441406 1971.378906 787.679688 L 1971.859375 787.449219 C 1857.839844 839.691406 1892.511719 1018.671875 1871.578125 1065.859375 C 1869.808594 1069.839844 1834.269531 1067.109375 1821.121094 1060.5 L 1828.589844 1069.121094 C 1828.589844 1069.121094 1828.609375 1069.210938 1828.601562 1069.148438 C 1828.578125 1069.070312 1828.550781 1068.910156 1828.5 1068.648438 C 1828.460938 1068.359375 1828.390625 1067.960938 1828.339844 1067.441406 C 1828.269531 1066.871094 1828.21875 1066.179688 1828.160156 1065.339844 C 1828.109375 1064.410156 1828.070312 1063.351562 1828.050781 1062.128906 C 1828.03125 1060.769531 1828.039062 1059.269531 1828.070312 1057.601562 C 1828.441406 1038.851562 1831.988281 1007.429688 1828.128906 974.050781 C 1822.269531 923.25 1801.191406 867.101562 1739.800781 809.539062 C 1689.421875 762.308594 1562.980469 743.921875 1473.730469 788.730469 C 1368.179688 841.730469 1377.179688 968.570312 1388.289062 1032.5 C 1397.820312 1087.390625 1444.96875 1126.960938 1474.628906 1157.839844 C 1502.988281 1187.359375 1505.238281 1198.941406 1505.238281 1198.941406 C 1500.378906 1207.148438 1482.621094 1212.730469 1475.441406 1209.058594 C 1347.140625 1143.390625 1122.621094 1101.089844 1076.140625 1278.308594 C 1038.539062 1421.691406 1217.191406 1629.679688 1364.511719 1600.730469 C 1715.109375 1531.859375 1706.769531 1356.539062 1837.851562 1334.390625 C 1959.738281 1313.78125 1934.75 1519.800781 2162.949219 1577.148438 C 2347.269531 1623.46875 2239.109375 1888.910156 2156.820312 2027.890625 C 2105.300781 2114.890625 1976.300781 2157.519531 1860.289062 2169.800781 C 1749.269531 2181.550781 1639.71875 2155.78125 1568.878906 2079.730469 C 1561.308594 2071.609375 1554.070312 2062.519531 1547.160156 2052.558594 Z M 1547.160156 2052.558594 "/>
<path fill-rule="nonzero" fill="rgb(0%, 0%, 0%)" fill-opacity="1" d="M 2010.300781 1762.410156 C 2090.980469 1814.480469 1932.449219 1936.28125 1836.429688 1936.28125 C 1740.398438 1936.28125 1582.570312 1815.558594 1662.550781 1762.410156 C 1727.769531 1719.070312 1784.988281 1599.03125 1836.429688 1588.539062 C 1865.570312 1582.589844 1950.28125 1723.671875 2010.300781 1762.410156 Z M 2010.300781 1762.410156 "/>
<path fill-rule="nonzero" fill="rgb(0%, 0%, 0%)" fill-opacity="1" d="M 1827.441406 1544.539062 C 1799.761719 1550.191406 1781.679688 1565.871094 1765.238281 1582.050781 C 1748.800781 1598.230469 1734.039062 1616.730469 1719.359375 1635.398438 C 1690 1672.738281 1659.441406 1710.558594 1637.710938 1725.011719 C 1605.519531 1746.398438 1590.289062 1790.75 1599.128906 1823.648438 C 1607.96875 1856.558594 1629 1880.929688 1653.691406 1902.851562 C 1703.050781 1946.691406 1769.609375 1981.171875 1836.429688 1981.171875 C 1903.429688 1981.171875 1970.058594 1946.359375 2019.46875 1902.410156 C 2044.171875 1880.441406 2065.230469 1856.101562 2074.050781 1823.148438 C 2082.871094 1790.199219 2067.128906 1745.660156 2034.640625 1724.679688 C 2017.398438 1713.558594 1979.011719 1669.851562 1946.46875 1630.230469 C 1930.210938 1610.421875 1914.691406 1591.519531 1899.21875 1576.019531 C 1891.480469 1568.269531 1883.941406 1561.308594 1874.109375 1554.980469 C 1864.289062 1548.648438 1850.21875 1539.898438 1827.441406 1544.539062 Z M 1836.039062 1639.890625 C 1846.5 1650.421875 1861.179688 1667.808594 1877.101562 1687.199219 C 1909.210938 1726.308594 1943.171875 1772.519531 1985.949219 1800.128906 C 1987.128906 1800.890625 1986.539062 1799.988281 1987.179688 1800.179688 C 1985.839844 1804.871094 1976.5 1820.480469 1959.800781 1835.339844 C 1926.109375 1865.308594 1865.46875 1891.390625 1836.429688 1891.390625 C 1807.230469 1891.390625 1746.851562 1865.519531 1713.289062 1835.710938 C 1696.5 1820.808594 1687.078125 1805.03125 1685.820312 1800.351562 C 1684.558594 1795.671875 1679.601562 1804.988281 1687.398438 1799.808594 C 1730.878906 1770.910156 1761.519531 1727.050781 1789.941406 1690.910156 C 1804.148438 1672.839844 1817.441406 1656.660156 1828.230469 1646.03125 C 1833.140625 1641.199219 1832.878906 1642.03125 1836.039062 1639.898438 Z M 1836.039062 1639.890625 "/>
<path fill-rule="nonzero" fill="rgb(0%, 0%, 0%)" fill-opacity="1" d="M 1035.878906 2682.941406 L 948.636719 2682.941406 L 933.222656 2722.949219 L 854.507812 2722.949219 L 954.867188 2493.371094 L 1030.960938 2493.371094 L 1131.320312 2722.949219 L 1051.289062 2722.949219 Z M 1014.558594 2627.179688 L 992.257812 2569.460938 L 969.953125 2627.179688 Z M 1014.558594 2627.179688 "/>
<path fill-rule="nonzero" fill="rgb(0%, 0%, 0%)" fill-opacity="1" d="M 1493.070312 2493.371094 L 1493.070312 2722.949219 L 1429.441406 2722.949219 L 1342.210938 2618.648438 L 1342.210938 2722.949219 L 1266.769531 2722.949219 L 1266.769531 2493.371094 L 1330.398438 2493.371094 L 1417.640625 2597.660156 L 1417.640625 2493.371094 Z M 1493.070312 2493.371094 "/>
<path fill-rule="nonzero" fill="rgb(0%, 0%, 0%)" fill-opacity="1" d="M 1653.449219 2722.949219 L 1730.851562 2722.949219 L 1730.851562 2493.367188 L 1653.449219 2493.367188 Z M 1653.449219 2722.949219 "/>
<path fill-rule="nonzero" fill="rgb(0%, 0%, 0%)" fill-opacity="1" d="M 2096.21875 2722.949219 L 2095.558594 2618.320312 L 2045.710938 2702.28125 L 2011.601562 2702.28125 L 1961.75 2621.929688 L 1961.75 2722.949219 L 1891.230469 2722.949219 L 1891.230469 2493.371094 L 1954.859375 2493.371094 L 2029.640625 2615.699219 L 2102.449219 2493.371094 L 2166.078125 2493.371094 L 2166.730469 2722.949219 Z M 2096.21875 2722.949219 "/>
<path fill-rule="nonzero" fill="rgb(0%, 0%, 0%)" fill-opacity="1" d="M 2483.558594 2682.941406 L 2396.320312 2682.941406 L 2380.898438 2722.949219 L 2302.191406 2722.949219 L 2402.550781 2493.371094 L 2478.640625 2493.371094 L 2579 2722.949219 L 2498.96875 2722.949219 Z M 2462.238281 2627.179688 L 2439.941406 2569.460938 L 2417.628906 2627.179688 Z M 2462.238281 2627.179688 "/>
<path fill-rule="nonzero" fill="rgb(0%, 0%, 0%)" fill-opacity="1" d="M 2714.449219 2493.371094 L 2791.851562 2493.371094 L 2791.851562 2662.929688 L 2895.488281 2662.929688 L 2895.488281 2722.949219 L 2714.449219 2722.949219 Z M 2714.449219 2493.371094 "/>
<path fill-rule="nonzero" fill="rgb(0%, 0%, 0%)" fill-opacity="1" d="M 979.019531 2879.523438 L 979.019531 2913.660156 L 1038.800781 2913.660156 L 1038.800781 2937.644531 L 979.019531 2937.644531 L 979.019531 2984.695312 L 949.128906 2984.695312 L 949.128906 2855.539062 L 1046.730469 2855.539062 L 1046.730469 2879.523438 Z M 979.019531 2879.523438 "/>
<path fill-rule="nonzero" fill="rgb(0%, 0%, 0%)" fill-opacity="1" d="M 1197.480469 2986.910156 C 1184.070312 2986.910156 1171.960938 2984.019531 1161.128906 2978.238281 C 1150.429688 2972.457031 1142 2964.523438 1135.859375 2954.4375 C 1129.828125 2944.226562 1126.808594 2932.785156 1126.808594 2920.117188 C 1126.808594 2907.445312 1129.828125 2896.070312 1135.859375 2885.984375 C 1142 2875.773438 1150.429688 2867.777344 1161.128906 2861.996094 C 1171.960938 2856.214844 1184.070312 2853.324219 1197.480469 2853.324219 C 1210.890625 2853.324219 1222.941406 2856.214844 1233.640625 2861.996094 C 1244.339844 2867.777344 1252.769531 2875.773438 1258.921875 2885.984375 C 1265.070312 2896.070312 1268.148438 2907.445312 1268.148438 2920.117188 C 1268.148438 2932.785156 1265.070312 2944.226562 1258.921875 2954.4375 C 1252.769531 2964.523438 1244.339844 2972.457031 1233.640625 2978.238281 C 1222.941406 2984.019531 1210.890625 2986.910156 1197.480469 2986.910156 Z M 1197.480469 2961.445312 C 1205.109375 2961.445312 1212 2959.726562 1218.140625 2956.28125 C 1224.300781 2952.714844 1229.089844 2947.792969 1232.539062 2941.519531 C 1236.109375 2935.246094 1237.890625 2928.113281 1237.890625 2920.117188 C 1237.890625 2912.121094 1236.109375 2904.988281 1232.539062 2898.714844 C 1229.089844 2892.441406 1224.300781 2887.582031 1218.140625 2884.136719 C 1212 2880.570312 1205.109375 2878.785156 1197.480469 2878.785156 C 1189.851562 2878.785156 1182.960938 2880.570312 1176.820312 2884.136719 C 1170.660156 2887.582031 1165.808594 2892.441406 1162.238281 2898.714844 C 1158.789062 2904.988281 1157.070312 2912.121094 1157.070312 2920.117188 C 1157.070312 2928.113281 1158.789062 2935.246094 1162.238281 2941.519531 C 1165.808594 2947.792969 1170.660156 2952.714844 1176.820312 2956.28125 C 1182.960938 2959.726562 1189.851562 2961.445312 1197.480469 2961.445312 Z M 1197.480469 2961.445312 "/>
<path fill-rule="nonzero" fill="rgb(0%, 0%, 0%)" fill-opacity="1" d="M 1422.398438 2986.910156 C 1408.988281 2986.910156 1396.878906 2984.019531 1386.050781 2978.238281 C 1375.351562 2972.457031 1366.921875 2964.523438 1360.769531 2954.4375 C 1354.738281 2944.226562 1351.730469 2932.785156 1351.730469 2920.117188 C 1351.730469 2907.445312 1354.738281 2896.070312 1360.769531 2885.984375 C 1366.921875 2875.773438 1375.351562 2867.777344 1386.050781 2861.996094 C 1396.878906 2856.214844 1408.988281 2853.324219 1422.398438 2853.324219 C 1435.808594 2853.324219 1447.859375 2856.214844 1458.558594 2861.996094 C 1469.261719 2867.777344 1477.691406 2875.773438 1483.839844 2885.984375 C 1489.988281 2896.070312 1493.070312 2907.445312 1493.070312 2920.117188 C 1493.070312 2932.785156 1489.988281 2944.226562 1483.839844 2954.4375 C 1477.691406 2964.523438 1469.261719 2972.457031 1458.558594 2978.238281 C 1447.859375 2984.019531 1435.808594 2986.910156 1422.398438 2986.910156 Z M 1422.398438 2961.445312 C 1430.019531 2961.445312 1436.910156 2959.726562 1443.058594 2956.28125 C 1449.210938 2952.714844 1454.011719 2947.792969 1457.449219 2941.519531 C 1461.019531 2935.246094 1462.808594 2928.113281 1462.808594 2920.117188 C 1462.808594 2912.121094 1461.019531 2904.988281 1457.449219 2898.714844 C 1454.011719 2892.441406 1449.210938 2887.582031 1443.058594 2884.136719 C 1436.910156 2880.570312 1430.019531 2878.785156 1422.398438 2878.785156 C 1414.769531 2878.785156 1407.878906 2880.570312 1401.730469 2884.136719 C 1395.578125 2887.582031 1390.71875 2892.441406 1387.160156 2898.714844 C 1383.710938 2904.988281 1381.988281 2912.121094 1381.988281 2920.117188 C 1381.988281 2928.113281 1383.710938 2935.246094 1387.160156 2941.519531 C 1390.71875 2947.792969 1395.578125 2952.714844 1401.730469 2956.28125 C 1407.878906 2959.726562 1414.769531 2961.445312 1422.398438 2961.445312 Z M 1422.398438 2961.445312 "/>
<path fill-rule="nonzero" fill="rgb(0%, 0%, 0%)" fill-opacity="1" d="M 1609.679688 2879.894531 L 1568.339844 2879.894531 L 1568.339844 2855.539062 L 1680.890625 2855.539062 L 1680.890625 2879.894531 L 1639.570312 2879.894531 L 1639.570312 2984.695312 L 1609.679688 2984.695312 Z M 1609.679688 2879.894531 "/>
<path fill-rule="nonzero" fill="rgb(0%, 0%, 0%)" fill-opacity="1" d="M 1822.050781 2855.539062 C 1833.480469 2855.539062 1843.390625 2857.445312 1851.75 2861.257812 C 1860.238281 2865.070312 1866.761719 2870.484375 1871.308594 2877.496094 C 1875.859375 2884.507812 1878.140625 2892.808594 1878.140625 2902.402344 C 1878.140625 2911.875 1875.859375 2920.179688 1871.308594 2927.3125 C 1866.761719 2934.324219 1860.238281 2939.738281 1851.75 2943.550781 C 1843.390625 2947.238281 1833.480469 2949.085938 1822.050781 2949.085938 L 1796.03125 2949.085938 L 1796.03125 2984.695312 L 1766.140625 2984.695312 L 1766.140625 2855.539062 Z M 1820.390625 2924.730469 C 1829.359375 2924.730469 1836.191406 2922.824219 1840.871094 2919.011719 C 1845.539062 2915.074219 1847.878906 2909.539062 1847.878906 2902.402344 C 1847.878906 2895.148438 1845.539062 2889.609375 1840.871094 2885.796875 C 1836.191406 2881.863281 1829.359375 2879.894531 1820.390625 2879.894531 L 1796.03125 2879.894531 L 1796.03125 2924.730469 Z M 1820.390625 2924.730469 "/>
<path fill-rule="nonzero" fill="rgb(0%, 0%, 0%)" fill-opacity="1" d="M 2050.839844 2984.695312 L 2025.929688 2948.714844 L 1998.441406 2948.714844 L 1998.441406 2984.695312 L 1968.550781 2984.695312 L 1968.550781 2855.539062 L 2024.449219 2855.539062 C 2035.890625 2855.539062 2045.789062 2857.445312 2054.160156 2861.257812 C 2062.648438 2865.070312 2069.160156 2870.484375 2073.71875 2877.496094 C 2078.269531 2884.507812 2080.539062 2892.808594 2080.539062 2902.402344 C 2080.539062 2912 2078.210938 2920.300781 2073.53125 2927.3125 C 2068.980469 2934.199219 2062.460938 2939.492188 2053.96875 2943.179688 L 2082.941406 2984.695312 Z M 2050.289062 2902.402344 C 2050.289062 2895.148438 2047.949219 2889.609375 2043.269531 2885.796875 C 2038.601562 2881.863281 2031.769531 2879.894531 2022.789062 2879.894531 L 1998.441406 2879.894531 L 1998.441406 2924.914062 L 2022.789062 2924.914062 C 2031.769531 2924.914062 2038.601562 2922.945312 2043.269531 2919.011719 C 2047.949219 2915.074219 2050.289062 2909.539062 2050.289062 2902.402344 Z M 2050.289062 2902.402344 "/>
<path fill-rule="nonzero" fill="rgb(0%, 0%, 0%)" fill-opacity="1" d="M 2173.351562 2984.695312 L 2203.242188 2984.695312 L 2203.242188 2855.539062 L 2173.351562 2855.539062 Z M 2173.351562 2984.695312 "/>
<path fill-rule="nonzero" fill="rgb(0%, 0%, 0%)" fill-opacity="1" d="M 2421.519531 2855.539062 L 2421.519531 2984.695312 L 2396.980469 2984.695312 L 2332.589844 2906.277344 L 2332.589844 2984.695312 L 2303.058594 2984.695312 L 2303.058594 2855.539062 L 2327.789062 2855.539062 L 2392 2933.957031 L 2392 2855.539062 Z M 2421.519531 2855.539062 "/>
<path fill-rule="nonzero" fill="rgb(0%, 0%, 0%)" fill-opacity="1" d="M 2548.089844 2879.894531 L 2506.761719 2879.894531 L 2506.761719 2855.539062 L 2619.308594 2855.539062 L 2619.308594 2879.894531 L 2577.980469 2879.894531 L 2577.980469 2984.695312 L 2548.089844 2984.695312 Z M 2548.089844 2879.894531 "/>
<path fill-rule="nonzero" fill="rgb(0%, 0%, 0%)" fill-opacity="1" d="M 2746.070312 2986.910156 C 2735.859375 2986.910156 2725.960938 2985.554688 2716.359375 2982.851562 C 2706.890625 2980.019531 2699.269531 2976.390625 2693.480469 2971.964844 L 2703.628906 2949.453125 C 2709.171875 2953.511719 2715.75 2956.773438 2723.378906 2959.234375 C 2731 2961.691406 2738.628906 2962.921875 2746.25 2962.921875 C 2754.738281 2962.921875 2761.019531 2961.691406 2765.070312 2959.234375 C 2769.128906 2956.648438 2771.160156 2953.265625 2771.160156 2949.085938 C 2771.160156 2946.007812 2769.929688 2943.488281 2767.46875 2941.519531 C 2765.140625 2939.429688 2762.058594 2937.769531 2758.25 2936.539062 C 2754.558594 2935.308594 2749.519531 2933.957031 2743.121094 2932.480469 C 2733.28125 2930.140625 2725.21875 2927.804688 2718.949219 2925.46875 C 2712.679688 2923.128906 2707.261719 2919.378906 2702.710938 2914.210938 C 2698.28125 2909.046875 2696.070312 2902.15625 2696.070312 2893.546875 C 2696.070312 2886.042969 2698.101562 2879.277344 2702.160156 2873.25 C 2706.21875 2867.101562 2712.308594 2862.242188 2720.429688 2858.675781 C 2728.660156 2855.109375 2738.691406 2853.324219 2750.5 2853.324219 C 2758.738281 2853.324219 2766.800781 2854.308594 2774.671875 2856.277344 C 2782.539062 2858.246094 2789.429688 2861.074219 2795.339844 2864.765625 L 2786.109375 2887.457031 C 2774.179688 2880.691406 2762.25 2877.3125 2750.320312 2877.3125 C 2741.949219 2877.3125 2735.738281 2878.664062 2731.679688 2881.371094 C 2727.738281 2884.074219 2725.769531 2887.644531 2725.769531 2892.070312 C 2725.769531 2896.5 2728.050781 2899.820312 2732.601562 2902.035156 C 2737.28125 2904.125 2744.351562 2906.21875 2753.820312 2908.308594 C 2763.660156 2910.644531 2771.71875 2912.984375 2777.988281 2915.320312 C 2784.269531 2917.65625 2789.609375 2921.347656 2794.039062 2926.390625 C 2798.589844 2931.433594 2800.871094 2938.261719 2800.871094 2946.871094 C 2800.871094 2954.25 2798.78125 2961.015625 2794.601562 2967.167969 C 2790.539062 2973.195312 2784.390625 2977.992188 2776.140625 2981.558594 C 2767.910156 2985.125 2757.878906 2986.910156 2746.070312 2986.910156 Z M 2746.070312 2986.910156 "/>
</svg>
