<?xml version="1.0" encoding="UTF-8" standalone="no"?>
<svg
   xmlns:dc="http://purl.org/dc/elements/1.1/"
   xmlns:cc="http://creativecommons.org/ns#"
   xmlns:rdf="http://www.w3.org/1999/02/22-rdf-syntax-ns#"
   xmlns:svg="http://www.w3.org/2000/svg"
   xmlns="http://www.w3.org/2000/svg"
   viewBox="0 0 1600 1600"
   height="1600"
   width="1600"
   xml:space="preserve"
   id="svg2"
   version="1.1"><metadata
     id="metadata8"><rdf:RDF><cc:Work
         rdf:about=""><dc:format>image/svg+xml</dc:format><dc:type
           rdf:resource="http://purl.org/dc/dcmitype/StillImage" /></cc:Work></rdf:RDF></metadata><defs
     id="defs6" /><g
     transform="matrix(1.3333333,0,0,-1.3333333,0,1600)"
     id="g10"><g
       transform="scale(0.1)"
       id="g12"><path
         id="path14"
         style="fill:#100f0d;fill-opacity:1;fill-rule:nonzero;stroke:none"
         d="m 4911.21,7085.13 c 534.66,190.07 731.91,1035.12 440.55,1887.46 C 5060.41,9824.94 4390.8,10361.8 3856.13,10171.8 3321.46,9981.68 3124.22,9136.64 3415.57,8284.29 3706.92,7431.94 4376.54,6895.06 4911.21,7085.13" /><path
         id="path16"
         style="fill:#100f0d;fill-opacity:1;fill-rule:nonzero;stroke:none"
         d="m 6818.57,7135.68 c 517.15,-235.12 1228.56,242.61 1588.96,1067.04 360.41,824.44 233.34,1683.37 -283.82,1918.48 -517.16,235.1 -1228.55,-242.61 -1588.96,-1067.04 -360.4,-824.43 -233.33,-1683.36 283.82,-1918.48" /><path
         id="path18"
         style="fill:#100f0d;fill-opacity:1;fill-rule:nonzero;stroke:none"
         d="m 3646.6,5295.85 c 314.46,379.77 123.32,1071.76 -426.93,1545.61 -550.25,473.84 -1251.23,550.1 -1565.69,170.33 -314.46,-379.77 -123.32,-1071.76 426.93,-1545.61 550.25,-473.84 1251.23,-550.1 1565.69,-170.33" /><path
         id="path20"
         style="fill:#100f0d;fill-opacity:1;fill-rule:nonzero;stroke:none"
         d="m 8400.41,5605.13 c 351.54,-358.51 1054.18,-223.22 1569.38,302.17 515.21,525.41 647.81,1241.95 296.31,1600.45 -351.55,358.51 -1054.19,223.22 -1569.38,-302.17 -515.2,-525.4 -647.85,-1241.95 -296.31,-1600.45" /><path
         id="path22"
         style="fill:#100f0d;fill-opacity:1;fill-rule:nonzero;stroke:none"
         d="M 10452.8,3317.66 C 10336,4128.4 9727.43,4813.91 9017.3,4934.57 l 88.45,-20.83 c -587.25,44.45 -1152.62,385.96 -1516.09,915.76 -175.47,255.78 -309.91,557.19 -537.18,752.37 -186.31,160 -418.92,233.21 -649.42,271.46 -370.84,61.51 -757.54,39.12 -1107.49,-114.19 -349.96,-153.31 -660.29,-445.23 -821.67,-832.29 -89.13,-213.76 -131.67,-450.01 -222.58,-662.79 -255.62,-598.33 -839.5,-910.1 -1206.98,-1426.53 -271.49,-381.54 -417.37,-877.45 -402.77,-1369.24 3.86,-130.08 19.77,-264 78.08,-375.74 59.23,-113.55 156.69,-193.65 256.25,-260.65 482.67,-325.1 1084.29,-409.6 1621.3,-227.7 673.69,228.1 1269.29,853.75 1968.93,780.38 251.73,-26.4 488.03,-143.86 728.59,-232.72 875.29,-323.36 1854.17,-263.46 2694.32,164.93 117.66,59.98 235.46,129.31 321.76,238.8 161.2,204.66 181.2,510.16 142,782.07" /></g></g></svg>