<?xml version="1.0"?>
<svg xmlns="http://www.w3.org/2000/svg" viewBox="0 0 450 450">
  <title>dog-vectors</title>
  <g id="Background"/>
  <g id="Dogs">
    <path d="M423.41,417.77c-.43-4.37,1.4-9.32-.82-13.39-1-1.88-2.76-3.36-3.62-5.31a33,33,0,0,1-1.7-6.58c-1.11-5.29-3-20.6-3.95-22.71-.82-1.77-2.86-5.13-2.86-5.13a9.09,9.09,0,0,1,.29-3.11c1-2.21-.46-5.22-.64-7.51-.39-4.85,1.78-8.59,5.29-11.69.74-.66,5.1-4.45,2-3.94a22.13,22.13,0,0,0-7,2.81c-2.49,1.46-6.44,10.12-6.85,11.45-.69,2.24-1.34,3.62-3.91,3.65s-5.09-.71-7.63-.85-18,.75-23.07,1.46a27.39,27.39,0,0,1-7.67.21c-2.61-.34-5.35,0-8-.1-2.44-.06-11.55-2.34-13.75-3.25-2.36-1-4.67-2.07-7-3s-4.87-1.92-6.73-3.73a5,5,0,0,1-1.66-3.93,6.78,6.78,0,0,0-1-2.69,5.55,5.55,0,0,0-1.93-2.3c-1.22-.63-1.85,1.26-2.16,2.09-.52,1.4-2,6.86-2,6.86a33.63,33.63,0,0,0-5.19,3.32c-1.62,1.49-3.56,3.8-3.56,6.13,0,2.76-2.61,4.4-4.78,5.68-1.06.64-3.13,1.37-3.57,2.63s1.13,2.37,1.93,3.14a4.74,4.74,0,0,0,4.25,1c.48-.08,3.9-.54,3.9-.54a24.85,24.85,0,0,0-2,1.73,5.32,5.32,0,0,0-1,3,5.57,5.57,0,0,0,.22,2.75c.49,1.21,1.33,1.11,1.39-.18v-.73l1.71.42a4,4,0,0,0,2.84-.5c2-1.13,7.7-5.37,7.7-5.37a40.66,40.66,0,0,1,4.56,2.82c1.74,1.4,8.44,7.56,9.67,9.55s6.62,11.88,6.62,11.88a23.88,23.88,0,0,1-2.15,3.2c-1.78,1.65-3.37,3.35-5.3,4.84a26.26,26.26,0,0,0-4.68,4.25c-1.52,1.91-1.54,4.14-2.48,6.28-.83,1.86-2.26,3.34-3.36,5-1,1.52-3.11,3.87-.44,4.86,1.91.71,3.39-.28,4.68-1.55.73-.71,2-.34,2.52-1.51.39-.91-.3-2-.26-2.91a5.93,5.93,0,0,1,1.06-3.06c.55-.8,1.27-.69,2.09-1s.75-1.48.9-2.27a2.59,2.59,0,0,1,1.65-1.88c4.6-2.48,9.59-4.12,13.81-7.28.88-.66,4.86-2.57,4.86-2.57s.78,1.16,1,1.48c.69,1.11,1.43,2.11,2.21,3.16a39.33,39.33,0,0,1,3.36,6.1,44.58,44.58,0,0,1,2.82,6.22c.37,1.17,1.53,4.73-.39,5.21s-4.27,1.06-5.14,3,7.5,2.55,8.58,2.15c1.58-.58,1.5-2.62,1.56-4a14.74,14.74,0,0,0-.13-3.45c-.16-.79-.59-2.41.58-2.65.66-.14,1.57,0,1.3-1a6.1,6.1,0,0,0-1.13-1.94,20.15,20.15,0,0,1-2.07-4.9c-.69-2.12-1.49-4.19-2.38-6.23a51,51,0,0,1-1.72-6.47,12.85,12.85,0,0,1,3.05-1.34c2.58-.7,16.29-7,16.29-7a12.33,12.33,0,0,1,2.05,1.94c.93,1.68,1.34,3.34,2.62,4.87,2.43,2.87,5.64,4.95,8.08,7.8,1.08,1.26,2.38,2.94,2.53,4.65.21,2.31-1.06,4.77-2.2,6.7a13.51,13.51,0,0,1-4,4.56c-1.18.8-5.27,1.93-3.39,3.86,1.58,1.63,3.85.66,5.65.17s3.43-.13,3.76-2.42,5.83-9.64,6.76-11.81c2.13-5-2.54-7.18-4.54-11.1a12.5,12.5,0,0,1-1.46-5.8,34.57,34.57,0,0,1,1.74-3.9s3.51,4.58,5.18,6.95c1.42,2,7.56,10,9.25,12,1.52,1.79,3.34,3.33,4.08,5.64a19.2,19.2,0,0,1,.46,6.72c-.08,1.94-.23,3.27-2.22,4-1.32.5-4.51,1.43-3,3.51,1.35,1.87,6.36,2.35,8.33,1.35C424.57,424.82,423.64,420.12,423.41,417.77Z" fill="#231f20"/>
    <path d="M174.43,391.86c.33.87,1.52.55,2.1.22,1.62-.92,2.26-.46,2.59.47a8.54,8.54,0,0,1,.3,1.42,13,13,0,0,0,1.14,3.87c3.49,6.44,15.44,5.19,20,.48.43-.47,1.84-.58,1.84-.58a22.13,22.13,0,0,0,.32,4.61c.43,2.08,1.3,4.27,1.41,6.11s-1.62,4.39-1.73,6.23,3.67,7.73,4,8.65,1.29,3.46,2.37,3.81,5.52-.23,6.81-.35,3.25-.92,3.89-.81.33.93.76,1.73,1.19,1,2.49,1.5,7,.35,9,.46,3.67-.57,4-1-.33-2.43-1.19-2.66-6.05-.11-7.46-1.15-3.24-1.85-3.89-3.11-1.41-1.85-.87-3.92c.84-3.23,4.13-6.12,5.77-9,4-7-.11-13.18-3-19.62,0,0,4.43-5.65,8.33-6.92,8.08-2.63,17.07-12.26,17.07-21v-3.12s7.46,1,8.65-.11,5.4-11.07,7.46-13.38,5.19-8.65,6.48-9.57a5.6,5.6,0,0,0,1.6-2.29,6.47,6.47,0,0,0,.44-1.1c.13-.51-.19-.61-.63-.88a7.87,7.87,0,0,0,.43-2.54c-.11-.92-1.84-.69-1.84-.69s.65-.58,0-.92-2.59-.46-2.81,0-1.62.46-1.84,1.27-.32,3.11-.86,3.92-6.27,7.73-7.13,8.76-4.65,5.42-4.65,5.42-.87-3.46-1.08-5a23.4,23.4,0,0,1-.22-3s3.46-3.7,3.89-4.85.22-3.69.43-4.61a13.6,13.6,0,0,0,.44-3.46c-.11-.69-1.19-.81-1.19-.81a5.24,5.24,0,0,0,.65-2.08c0-.92-2.16-.57-2.71.12s-1.51,1.39-1.72,2.31-.33,2-.76,3.34-1.62,5.88-2.49,6.58a1.41,1.41,0,0,1-1.51.34s0-4.61-.65-6.11a23.58,23.58,0,0,0-2.81-4,64,64,0,0,1,2.16-6.69c.65-1.15,3.46-6.11,3.46-7.38s-1.08-2.54-1.51-2.31a7.74,7.74,0,0,0-1.19,1l-1.08-.92a16.46,16.46,0,0,0-.32-3.58c-.33-.69-1.52-2.3-2.38-2.3s-1.84,1.84-2.49,2.65-2,3.58-3.24,3.81a12.87,12.87,0,0,1-2.92.46c-.43-.12-1-.69-1.4-.35s-2.06,2.08-2.81,2.89-3.25,5.42-3.25,7.84.11,2.88-.86,5.07.22,5.88.32,7.61.33,5,.33,5-2.92,4.16-3.35,6a21.13,21.13,0,0,0-.33,4.61c.07,1.8-3.48,5.81-4.48,7.27-4.13,6-8.72,11.2-13.13,17-1,1.27-5.41,8.89-6.16,11.43s-4.22,7-5.73,8.3c-2.52,2.11-7,5.8-10.16,2.42-2.17-2.3-4.11-6.69-5.84-6.69s-3.57.23-4.65,2.19C174.78,390.55,174.24,391.35,174.43,391.86Zm34.2,25.48c.64-1.61,1-3.57,2.16-4.15a30.37,30.37,0,0,1,4.25-1.3,3.56,3.56,0,0,1,.4,1.53c0,.81-1.84,4-1.3,5.54a12.22,12.22,0,0,1,.65,2.77,2.64,2.64,0,0,1-1.95.8c-1.83-.19-2.05-2.07-3.24-3.34S208,419,208.63,417.34Z" fill="#231f20"/>
    <path d="M138.45,342.78a11.72,11.72,0,0,1-.86-1.38A9.7,9.7,0,0,0,133.9,338c-.78-.42-1.68-.59-2.46-1-1.77-1-.8-2.32-.2-3.69a20.52,20.52,0,0,0,1.46-6.52c-1.52,1.83-3.82,2.45-5.28,4.38-.18-2.18.83-4.25,1.66-6.24-4.83,4.84-9.1,12.08-11.63,18.35-3.09,7.66-10.36,10.6-17.86,13a117.22,117.22,0,0,1-14.69,4.1c-4.65.86-9.33.14-14,.14-14.39,0-33.1,8.27-34.63,24.57-.44,4.69,1.26,11-2,14.85-3.77,4.4-7.55,4.58-8.11,11.07-.3,3.46-1.94,8.08.31,11.17,1.18,1.62,8.85,5,9.69,1.6.72-2.92-3.51-2.17-4.82-3.61-1.74-1.92-.75-5.1-.53-7.39a5.31,5.31,0,0,1,3.18-4.65c1.3-.72,5.1-3.88,6.64-2.69s-1.4,5.71-1.75,7.13c-.6,2.38-.31,5.12-.36,7.67.62-1.08,1.32-2,2-3.08.06.82-.28,1.57-.15,2.37.12-.23.51-.9.5-.86-.23,1.35-.86,5.63.89,2.73a14.2,14.2,0,0,1,4.79-4.68c1.87-1.27,4.17-2.07,5.5-4,1.5-2.15,1-4.15.75-6.56-.21-2-.59-6.4.9-8,2.07-2.22,2.64,1.94,2.58,3.26-.14,3.24-3.92,7.62-.23,10.16,1.53,1.06,2.94,1,4.25,2.59A65.5,65.5,0,0,0,64.93,420c1.73,1.65,7.65,4.19,8.58.29.56-2.39-2.32-2.48-3.89-2.85-2.55-.61-3.83-2.51-5.59-4.31-.87-.88-2.79-2.46-2.76-3.82s1.75-2.49,2.4-3.53c2.23-3.51,4.64-6.93,6.21-10.79s2.28-8.73,7.07-9.38c5.46-.74,10.8,4.13,15.43,6.27,5,2.34,9.74,2,15.06.9a11.56,11.56,0,0,1-.63,5.59c.78-.42,1.64-.9,2.4-1.35-1,.58.58,11.54.71,12.94a94.36,94.36,0,0,0,1,9.66,7.34,7.34,0,0,0,3.56,5.41,11.5,11.5,0,0,0,5.1,1.71c.67,0,4.78-.55,4.88-1.43a16.41,16.41,0,0,0,.36-4.5c-2.1-.13-5.09.9-6.52-1.44-1.22-2-.46-2.05,1.19-2.08,3.93-.08,4.38,2.25,8.16-.14,1.3-5.52-6.19-3.46-8.72-5.66-4.26-3.71-.85-10.93-.66-15.45.23-5.64-.75-12.35,6.57-14a4.55,4.55,0,0,1-.62-3.08c2.36-.51,3,1.12,4.49,2.39.25-2.44-1-4.7-.59-7a11.87,11.87,0,0,1,2.47,2.35c-.83-2.11-2.23-4.25-1.75-6.59a7.51,7.51,0,0,1,1.94.88,24,24,0,0,1-3-6.22,9.86,9.86,0,0,1,2,1.62c-2.83-3.63.72-7,1.91-10.23.53-1.4,0-3.41,1.07-4.61.63-.73,1.61-.5,2.43-.29a35.1,35.1,0,0,0,3.51.69,12.81,12.81,0,0,0,4.75-.59,9.75,9.75,0,0,0,3.72-2.47,2.28,2.28,0,0,0,1-2.3,1.46,1.46,0,0,0-1.73-.93,4.54,4.54,0,0,1-2.41-.24,33.78,33.78,0,0,1-4.53-1.68A3.12,3.12,0,0,1,138.45,342.78Z" fill="#231f20"/>
    <path d="M419.7,176.62c1.05,3-.46,8.24-1.45,11.11a18,18,0,0,1-8.73,10.39c-5.87,2.92-11.91,4.81-17.34,8.61,0,0-12-2.59-28.62,0l-21.8-9.42c-.39-.17-1-2.34-1.18-2.72a42.44,42.44,0,0,0-3.56-6.21,27.34,27.34,0,0,0-5.89-6.48c-1.16-.83-2.52-1.38-3.66-2.25-.9-.69-1.76-2.64-2.62-3.07-3.48-1.76-6.85,2-9.68,3a10.06,10.06,0,0,0-5.21,3.93c-.8,1.34-.76,3.1-2,4.16-2.14,1.79-5,.25-5.17,3.85-.12,3.1,1.13,7.86,4.65,8.74,2.89.73,3.79.56,5.91-1.48,1.22-1.18,2.56-2.24,3.88-3.32l3.32-1.11c.56-.18,2.33,3.79,2.46,4.28.78,2.89-.32,6.2-.76,9.06a51.33,51.33,0,0,0-.51,8,23.14,23.14,0,0,0,1.2,7.7c.93,2.51,2.51,3.11,4.08,4.92l3.69,4.24.55,3.88,1.48,20.5-2.4,7s-1.29,3-1.66,3.51-5.91,3.14-5,4.43l3.7,1.3h5a10.55,10.55,0,0,0,1.85-2c.45-1.33,1.24-2.54,1.68-3.87.56-1.74.37-3.64,1.05-5.33.78-2,2.95-3,3.44-5.21a50.78,50.78,0,0,0,.44-5.68c.43-4.35.69-8.71,1.08-13.06.09-1,.17-2,.25-3.05l8.31-.55,4.62-2.22a27.68,27.68,0,0,0,4.62-2.4c1.1-.92,15.51-8.86,22,.19,0,0,5.72,17.17,20.68,22a7.77,7.77,0,0,1,4.29,3.18,13.31,13.31,0,0,1,1.46,10.56c-.79,2.67-4.16,4.63-4.61,7.09-.15.84,6,1.18,6.65,1a4.9,4.9,0,0,0,3.87-4.5c.64-4.45.19-9.64.15-14.14,0-1.45,0-2.9,0-4.34,0,0-17.92-11.08-15.33-22.16,0,0,.92-17.36-4.43-18.1.5.07,3-2.57,3.44-2.94a45,45,0,0,1,5.91-4c5-2.86,10.48-5.39,13.74-10.42A18.49,18.49,0,0,0,419.7,176.62Z" fill="#231f20"/>
    <path d="M205.79,218.28c3.53,7.17,2.55,14.87-2.19,17.2s-11.45-1.57-15-8.74-2.55-14.87,2.19-17.21S202.26,211.11,205.79,218.28Z" fill="#231f20"/>
    <path d="M249.49,205.57c-2.05,8.7-8.44,14.64-14.3,13.26s-8.93-9.53-6.89-18.23,8.44-14.63,14.28-13.26S251.52,196.87,249.49,205.57Z" fill="#231f20"/>
    <path d="M224.47,199.62c2.26,8.85-.39,17.18-5.91,18.59s-11.83-4.63-14.09-13.49.38-17.18,5.9-18.59S222.21,190.76,224.47,199.62Z" fill="#231f20"/>
    <path d="M263,230c-1.81,7.46-7.69,12.44-13.12,11.13s-8.38-8.44-6.57-15.9,7.68-12.45,13.12-11.13S264.77,222.49,263,230Z" fill="#231f20"/>
    <path d="M199.64,249.32s10.18-23.21,24.82-23.21c0,0,19.29-.72,24.47,29.11A7.29,7.29,0,0,1,242.3,264c-5.36.42-10.37-2.67-15.63-3.1-7.49-.61-22.42,7.88-27.4-1.79C198,256.67,198.35,251.73,199.64,249.32Z" fill="#231f20"/>
    <path d="M27.75,205.7s17.45,13.7,31.71,10.13l32.84-.94c3.21-.09,6.71-1.24,9.76-2.12,4.6-1.31,11.29-3.4,14-7.69,2.08-3.35,3.73-6.73,6.75-9.45a18.79,18.79,0,0,1,7.86-4.24c2.56-.67,5.87-.59,7.65,1.16a22.84,22.84,0,0,0,5.58,4,53.29,53.29,0,0,0,5.67,2.54c.82.3,1.76.41,2.09,1.17.75,1.78-2.17,3.64-3.23,4.64-.32.3-2.39.27-2.82.32l-5.43.62c-3.41.38-6.78.22-9.08,3.28-2.66,3.54-1.65,7.75-1.82,11.8a26.19,26.19,0,0,1-2.76,11.25,18.1,18.1,0,0,1-5.1,5.94l-1.7,4.51-.37,5.44v9.94c0,2.7.51,4.66.74,7.35,0-.51,3,1.87,3.2,2l2.13,1.43-2.25,1.69a32.9,32.9,0,0,0-4.33-.11c.58,0-1-3.58-1.36-4a3.77,3.77,0,0,1-1.07-3.16c0-.56-1.56-4.87-1.56-4.88.24,2.93-.37,5.83.11,8.75.39,2.37,1,2.47,3.08,3.26l1.5,2.25a6.22,6.22,0,0,1-4.16,1.13c-1.52-.3-1.06-1.81-2.1-2.79-2.25-2.13.06-4.55-2.76-5.76.06-7.56-.81-15-.76-22.6,0-.76,0-1.51,0-2.26,0,0-9.76.38-11.45,0a38.6,38.6,0,0,1-4.5-1.5s-6.19-3-8.26-3.37-9-5.26-15.76,4.5c0,0-1.12,7.32-12.94,12.57,0,0-12.2,8.45-5.64,15.95l.75,2.63-2.43.19H46.89S46,271,46,270.44s-.37-12-.37-12-9.58,6.94-3,12.95l.19,1.12-1.12,1.32H39.38l-2.25-.94a11.16,11.16,0,0,1-.75-2.82V259S52.89,251.67,51,234.6c0,0-1.5-9.57,4.69-12.76l.19-1.5S41.82,220.71,27.75,205.7Z" fill="#231f20"/>
    <path d="M334.4,76.22l5.77-3.13s0-11.66,11.19-9.62a19.63,19.63,0,0,0,5.77-.24s5.62.84,6.36,1.08l2.18,1.93s4.33-.37,5.17,3.48v.48s14.79-20.08,33-16.11c0,0,24.89-17.32,10.94-28.14l-1.44-2.65L416.9,26s14.43,8.42-4.09,27.9c0,0-4.33,2.28,0,7.09,0,0,5.65,10.11,0,18.4,0,0-1,4.81.24,7.7a3.64,3.64,0,0,1-.36,4s-.84,4.32.12,6.85c0,0,.72.36,2.28,9.14l1.32,2.89,1.33,1.2v1.32l-4,.72s-3.85.48-4.21,0-1.93-1-2-1.32l-.13-.36s4.81-6.37,1.81-9.26a29,29,0,0,0-4.21-15s.36-2-3.13-5.41a16.76,16.76,0,0,1-.48-3.37s-7.45,14.19-9.74,14.67c0,0-1.56.6,1.44,3,0,0,1.45.6-4,4.44A5.89,5.89,0,0,1,383,104l-2.52,2.29h-1.08l-.12,8.78-.93,1.2-4,.72a15.67,15.67,0,0,0-10,5.77l-.12,1.45-.73.84h-3.4s-6.09.12-6.57,0-1.32-.6-1.32-1a5.68,5.68,0,0,1,.6-1.45,1.27,1.27,0,0,1,.36-1.44c.72-.6.72-1.44,1.44-1.56a16.44,16.44,0,0,0,2.65-1.08s3.61-1.57,4.09-3.61c0,0,.24-.73,6.85-2.53l1.09-1,.48-1.69-4.57-5.65s-1-.72-3.25.13c0,0-1.68,1.2-6.37-.37,0,0-3.25-.24-4.21,1.09,0,0-4.57,3.24-5.17,4.33,0,0-3.49,4-8.3,3.48,0,0-11.67,3.13-12,3a37.29,37.29,0,0,0-4.21.48,12,12,0,0,0-5.17,2.76l-4.33.37-2,1.2-2,.36s-3,1.56-8.9-1.2c0,0-4.69-1.57.6-3.73,0,0,0-1.2,1.08-1.2s4.21-.24,4.57-.24,7-.48,7-.48,2.53-1.09,3.13-1.21,3-1.8,3.85-1.8a25.07,25.07,0,0,0,4-1.08l4.21-.85,4-2,2-.84,2-.48s5.78-.84,6.14-6.62l2.88-6L346.67,90l-.12-2.28-.24-1.56s-8.66,1.08-9.5-3.37C336.81,82.23,334.4,84,334.4,76.22Z" fill="#231f20"/>
    <path d="M216.08,95c-.21-.25-.45-.43-.67-.65l31.11-26.16c.18.26.32.52.53.77a12.15,12.15,0,1,0,7.78-19.86,12.15,12.15,0,1,0-20.91,4.25c.21.25.45.44.67.66L203.48,80.19c-.18-.26-.32-.53-.52-.78a12.16,12.16,0,1,0-7.78,19.86A12.14,12.14,0,1,0,216.08,95Z" fill="#231f20"/>
    <path d="M139.58,65c-.74-4.5.77-10.56-.85-9.42s-8.94-4.09-13.5-7.58c2.83-2.47-1.86-7.29,2.37-7.52,2.45-.13,5.51-4.41.07-3.12a38.68,38.68,0,0,0-9,3.74c.8-.81,1.13-1.61.42-2.28a12.25,12.25,0,0,1-3.21-5.48c-.48-1.49-1.16-1.6-2.62,1.08-1.17,2.16-.76,7.51-.55,9.51-6,2.57-6.3,5.09-8.62,7.07-2.69,2.29-7.56,9.89-14.54,13-9,2.83-16.72-13.15-37.58-7.22l-.26.08c-.91-2.47-3-4.88-6.44-3.65a3.31,3.31,0,0,0-.4,4.65l1.63,1.93C41,64.71,39.11,73.64,39.94,80c.58,4.44,2.44,22.24,2.48,27.37.15,1.69,2.09,12.79,5.32,14.71,1.64,1,2.59,4.27,8,2.49,2.91-1.54,2.21-3.41-.39-4.37-5.3-2.24-4.46-7.92-4.1-13.38,0,0,0-.07,0-.1a43.37,43.37,0,0,0,3,8c3.48,6.34,5.78,7.39,8.14,4.68s-.32-3.07-2.86-7.21,2.15-16.68,2.15-16.68a4.2,4.2,0,0,0,.46-1.58A55.4,55.4,0,0,0,74.81,99c.3,1.81,0,9.28,1.59,17.67,1.3,6.74,4.18,9,6.91,7.18s.1-2.56-1-7c-.78-3.23,4-10.13,6.8-13.75-.21,6.61,1.72,16.84,4.78,19.66,3.52,3.25,7.71,2.88,10.1,1,1.12-1.81-1.69-3.87-3.73-3.68-4-3.42-3.76-10.93.83-18.8,13.41-2.93,17.52-27,18.3-32.49,1.89.27,1.85,5.51,6.42,4.79C129.7,83.28,141.27,75.25,139.58,65ZM56.64,89.27h0Z" fill="#231f20"/>
  </g>
</svg>
