<?xml version="1.0" encoding="UTF-8"?>
<svg xmlns="http://www.w3.org/2000/svg" xmlns:xlink="http://www.w3.org/1999/xlink" width="2000" height="2000" viewBox="0 0 2000 2000">
<path fill-rule="evenodd" fill="rgb(95.701599%, 96.875%, 98.046875%)" fill-opacity="1" d="M 0 0.078125 L 1999.921875 0.078125 L 1999.921875 2000 L 0 2000 L 0 0.078125 "/>
<path fill-rule="evenodd" fill="rgb(95.701599%, 96.875%, 98.046875%)" fill-opacity="1" d="M 1908.238281 1915.15625 L 1889.179688 1915.15625 C 1888.300781 1915.15625 1887.589844 1915.871094 1887.589844 1916.746094 L 1887.589844 1935.800781 C 1887.589844 1936.679688 1888.300781 1937.394531 1889.179688 1937.394531 L 1908.238281 1937.394531 C 1909.109375 1937.394531 1909.828125 1936.679688 1909.828125 1935.800781 L 1909.828125 1916.746094 C 1909.828125 1915.871094 1909.109375 1915.15625 1908.238281 1915.15625 "/>
<path fill-rule="evenodd" fill="rgb(95.701599%, 96.875%, 98.046875%)" fill-opacity="1" d="M 1865.28125 1916.171875 L 1847.089844 1916.171875 C 1846.261719 1916.171875 1845.578125 1916.855469 1845.578125 1917.691406 L 1845.578125 1935.875 C 1845.578125 1936.710938 1846.261719 1937.394531 1847.089844 1937.394531 L 1865.28125 1937.394531 C 1866.109375 1937.394531 1866.800781 1936.710938 1866.800781 1935.875 L 1866.800781 1917.691406 C 1866.800781 1916.855469 1866.109375 1916.171875 1865.28125 1916.171875 "/>
<path fill-rule="evenodd" fill="rgb(95.701599%, 96.875%, 98.046875%)" fill-opacity="1" d="M 1822.320312 1917.1875 L 1805.011719 1917.1875 C 1804.210938 1917.1875 1803.558594 1917.839844 1803.558594 1918.636719 L 1803.558594 1935.949219 C 1803.558594 1936.742188 1804.210938 1937.394531 1805.011719 1937.394531 L 1822.320312 1937.394531 C 1823.121094 1937.394531 1823.769531 1936.742188 1823.769531 1935.949219 L 1823.769531 1918.636719 C 1823.769531 1917.839844 1823.121094 1917.1875 1822.320312 1917.1875 "/>
<path fill-rule="evenodd" fill="rgb(95.701599%, 96.875%, 98.046875%)" fill-opacity="1" d="M 1779.371094 1918.207031 L 1762.929688 1918.207031 C 1762.171875 1918.207031 1761.550781 1918.824219 1761.550781 1919.582031 L 1761.550781 1936.019531 C 1761.550781 1936.777344 1762.171875 1937.394531 1762.929688 1937.394531 L 1779.371094 1937.394531 C 1780.121094 1937.394531 1780.738281 1936.777344 1780.738281 1936.019531 L 1780.738281 1919.582031 C 1780.738281 1918.824219 1780.121094 1918.207031 1779.371094 1918.207031 "/>
<path fill-rule="evenodd" fill="rgb(95.701599%, 96.875%, 98.046875%)" fill-opacity="1" d="M 1736.410156 1919.222656 L 1720.839844 1919.222656 C 1720.128906 1919.222656 1719.539062 1919.808594 1719.539062 1920.523438 L 1719.539062 1936.09375 C 1719.539062 1936.808594 1720.128906 1937.394531 1720.839844 1937.394531 L 1736.410156 1937.394531 C 1737.128906 1937.394531 1737.710938 1936.808594 1737.710938 1936.09375 L 1737.710938 1920.523438 C 1737.710938 1919.808594 1737.128906 1919.222656 1736.410156 1919.222656 "/>
<path fill-rule="evenodd" fill="rgb(95.701599%, 96.875%, 98.046875%)" fill-opacity="1" d="M 1693.460938 1920.238281 L 1678.761719 1920.238281 C 1678.078125 1920.238281 1677.53125 1920.792969 1677.53125 1921.46875 L 1677.53125 1936.167969 C 1677.53125 1936.84375 1678.078125 1937.394531 1678.761719 1937.394531 L 1693.460938 1937.394531 C 1694.128906 1937.394531 1694.679688 1936.84375 1694.679688 1936.167969 L 1694.679688 1921.46875 C 1694.679688 1920.792969 1694.128906 1920.238281 1693.460938 1920.238281 "/>
<path fill-rule="evenodd" fill="rgb(95.701599%, 96.875%, 98.046875%)" fill-opacity="1" d="M 1650.5 1921.257812 L 1636.671875 1921.257812 C 1636.039062 1921.257812 1635.519531 1921.777344 1635.519531 1922.414062 L 1635.519531 1936.238281 C 1635.519531 1936.875 1636.039062 1937.394531 1636.671875 1937.394531 L 1650.5 1937.394531 C 1651.140625 1937.394531 1651.648438 1936.875 1651.648438 1936.238281 L 1651.648438 1922.414062 C 1651.648438 1921.777344 1651.140625 1921.257812 1650.5 1921.257812 "/>
<path fill-rule="evenodd" fill="rgb(95.701599%, 96.875%, 98.046875%)" fill-opacity="1" d="M 1607.539062 1922.273438 L 1594.589844 1922.273438 C 1593.988281 1922.273438 1593.511719 1922.761719 1593.511719 1923.355469 L 1593.511719 1936.3125 C 1593.511719 1936.90625 1593.988281 1937.394531 1594.589844 1937.394531 L 1607.539062 1937.394531 C 1608.140625 1937.394531 1608.628906 1936.90625 1608.628906 1936.3125 L 1608.628906 1923.355469 C 1608.628906 1922.761719 1608.140625 1922.273438 1607.539062 1922.273438 "/>
<path fill-rule="evenodd" fill="rgb(95.701599%, 96.875%, 98.046875%)" fill-opacity="1" d="M 1564.589844 1923.292969 L 1552.5 1923.292969 C 1551.949219 1923.292969 1551.488281 1923.746094 1551.488281 1924.300781 L 1551.488281 1936.386719 C 1551.488281 1936.941406 1551.949219 1937.394531 1552.5 1937.394531 L 1564.589844 1937.394531 C 1565.140625 1937.394531 1565.601562 1936.941406 1565.601562 1936.386719 L 1565.601562 1924.300781 C 1565.601562 1923.746094 1565.140625 1923.292969 1564.589844 1923.292969 "/>
<path fill-rule="evenodd" fill="rgb(23.535156%, 43.920898%, 72.851562%)" fill-opacity="1" d="M 999.960938 69.859375 C 1511.558594 69.859375 1930.140625 488.441406 1930.140625 1000.039062 C 1930.140625 1511.636719 1511.558594 1930.21875 999.960938 1930.21875 C 488.363281 1930.21875 69.78125 1511.636719 69.78125 1000.039062 C 69.78125 488.441406 488.363281 69.859375 999.960938 69.859375 "/>
<path fill-rule="evenodd" fill="rgb(18.041992%, 34.910583%, 53.709412%)" fill-opacity="1" d="M 898.554688 1924.625 C 434.199219 1873.683594 69.78125 1477.378906 69.78125 1000.039062 C 69.78125 997.589844 69.859375 995.148438 69.878906 992.699219 L 1038.210938 345.199219 L 1088.378906 595.761719 L 1484.429688 849.890625 L 1153.78125 1073.644531 L 1464.390625 1559.214844 L 898.554688 1924.625 "/>
<path fill-rule="evenodd" fill="rgb(100%, 100%, 100%)" fill-opacity="1" d="M 1500.128906 836.839844 C 1416.769531 916.679688 1285.550781 855.300781 1221.289062 924.929688 C 1205.109375 942.46875 1202.75 968.628906 1218.011719 1005.785156 C 1235.371094 1036.761719 1253.089844 1066.710938 1270.839844 1096.707031 C 1343.710938 1219.871094 1474.128906 1328.613281 1509.558594 1495.296875 L 1509.609375 1495.285156 C 1514.628906 1518.902344 1482.390625 1548.800781 1464.390625 1559.214844 C 1448.109375 1568.628906 1429.070312 1574.515625 1409.429688 1576.101562 C 1389.851562 1577.683594 1369.390625 1575 1350.171875 1567.289062 C 1348.210938 1566.503906 1200.800781 1296.554688 1098.660156 1280.367188 C 1045.46875 1287.441406 999.714844 1298.777344 969.027344 1318.769531 C 945.59375 1334.035156 931.136719 1355.496094 929.675781 1385.925781 C 988.800781 1389.101562 1074.058594 1391.113281 1095.890625 1458.160156 C 1100.828125 1473.308594 1102.789062 1489.710938 1101.089844 1505.625 C 1099.308594 1522.269531 1093.5 1538.457031 1082.910156 1552.394531 C 1065.621094 1575.136719 1036.660156 1590.867188 993.296875 1590.867188 L 618.875 1590.867188 C 610.226562 1590.867188 602.566406 1586.644531 597.839844 1580.144531 C 557.554688 1534.691406 530.753906 1492.160156 515.015625 1451.984375 L 514.976562 1451.964844 C 430.027344 1404.101562 373.5 1325.953125 368.0625 1249.117188 C 362.8125 1174.945312 363.757812 1093.109375 489.378906 980.890625 C 520.15625 964.140625 555.171875 999.269531 526.863281 1031.328125 C 432.480469 1141.378906 410.804688 1265.109375 497.65625 1350.527344 C 503.347656 1249.558594 578.292969 1162.910156 672.527344 1078.730469 C 704.816406 1049.890625 736.828125 1023.421875 769.054688 996.78125 C 834.996094 942.269531 901.84375 887 952.820312 828.269531 C 949.332031 784.03125 949.148438 743.21875 953.359375 706.980469 C 957.578125 670.671875 966.195312 638.449219 980.238281 611.289062 C 961.980469 551.421875 977.464844 319.449219 1038.210938 345.199219 C 1041.898438 346.761719 1045.03125 349.070312 1047.519531 351.878906 C 1072.640625 376.320312 1095.179688 404 1115.371094 434.628906 C 1132.871094 461.179688 1148.449219 489.621094 1162.261719 519.800781 C 1206.410156 520.441406 1242.078125 526.910156 1271.199219 537.898438 C 1305.421875 550.820312 1330.589844 569.761719 1349.660156 592.761719 C 1358.539062 600.859375 1373.421875 604.710938 1391.609375 606.210938 C 1568.300781 620.828125 1611.679688 729.96875 1500.128906 836.839844 "/>
<path fill="none" stroke-width="197.532" stroke-linecap="round" stroke-linejoin="round" stroke="rgb(100%, 100%, 100%)" stroke-opacity="1" stroke-miterlimit="2.61313" d="M 15001.289062 11631.601562 C 14167.695312 10833.203125 12855.507812 11446.992188 12212.890625 10750.703125 C 12051.09375 10575.3125 12027.5 10313.710938 12180.117188 9942.148438 C 12353.710938 9632.382812 12530.898438 9332.890625 12708.398438 9032.929688 C 13437.109375 7801.289062 14741.289062 6713.867188 15095.585938 5047.03125 L 15096.09375 5047.148438 C 15146.289062 4810.976562 14823.90625 4511.992188 14643.90625 4407.851562 C 14481.09375 4313.710938 14290.703125 4254.84375 14094.296875 4238.984375 C 13898.515625 4223.164062 13693.90625 4250 13501.71875 4327.109375 C 13482.109375 4334.960938 12008.007812 7034.453125 10986.601562 7196.328125 C 10454.6875 7125.585938 9997.148438 7012.226562 9690.273438 6812.304688 C 9455.9375 6659.648438 9311.367188 6445.039062 9296.757812 6140.742188 C 9888.007812 6108.984375 10740.585938 6088.867188 10958.90625 5418.398438 C 11008.28125 5266.914062 11027.890625 5102.890625 11010.898438 4943.75 C 10993.085938 4777.304688 10935 4615.429688 10829.101562 4476.054688 C 10656.210938 4248.632812 10366.601562 4091.328125 9932.96875 4091.328125 L 6188.75 4091.328125 C 6102.265625 4091.328125 6025.664062 4133.554688 5978.398438 4198.554688 C 5575.546875 4653.085938 5307.539062 5078.398438 5150.15625 5480.15625 L 5149.765625 5480.351562 C 4300.273438 5958.984375 3735 6740.46875 3680.625 7508.828125 C 3628.125 8250.546875 3637.578125 9068.90625 4893.789062 10191.09375 C 5201.5625 10358.59375 5551.71875 10007.304688 5268.632812 9686.71875 C 4324.804688 8586.210938 4108.046875 7348.90625 4976.5625 6494.726562 C 5033.476562 7504.414062 5782.929688 8370.898438 6725.273438 9212.695312 C 7048.164062 9501.09375 7368.28125 9765.78125 7690.546875 10032.1875 C 8349.960938 10577.304688 9018.4375 11130 9528.203125 11717.304688 C 9493.320312 12159.6875 9491.484375 12567.8125 9533.59375 12930.195312 C 9575.78125 13293.28125 9661.953125 13615.507812 9802.382812 13887.109375 C 9619.804688 14485.78125 9774.648438 16805.507812 10382.109375 16548.007812 C 10418.984375 16532.382812 10450.3125 16509.296875 10475.195312 16481.210938 C 10726.40625 16236.796875 10951.796875 15960 11153.710938 15653.710938 C 11328.710938 15388.203125 11484.492188 15103.789062 11622.617188 14801.992188 C 12064.101562 14795.585938 12420.78125 14730.898438 12711.992188 14621.015625 C 13054.21875 14491.796875 13305.898438 14302.382812 13496.601562 14072.382812 C 13585.390625 13991.40625 13734.21875 13952.890625 13916.09375 13937.890625 C 15683.007812 13791.71875 16116.796875 12700.3125 15001.289062 11631.601562 Z M 15001.289062 11631.601562 " transform="matrix(0.1, 0, 0, -0.1, 0, 2000)"/>
<path fill-rule="evenodd" fill="rgb(18.041992%, 34.910583%, 53.709412%)" fill-opacity="1" d="M 1241.160156 1046.253906 L 1241.621094 1047.046875 C 1243.160156 1049.691406 1244.699219 1052.328125 1246.238281 1054.96875 L 1246.699219 1055.757812 L 1246.761719 1055.859375 L 1247.171875 1056.546875 L 1249.019531 1059.710938 L 1249.25 1060.101562 L 1249.480469 1060.496094 C 1255.75 1071.195312 1262.050781 1081.84375 1268.351562 1092.488281 L 1268.519531 1092.777344 L 1268.980469 1093.5625 L 1269.179688 1093.894531 L 1269.449219 1094.347656 L 1269.910156 1095.136719 L 1270.011719 1095.300781 L 1270.378906 1095.921875 L 1270.839844 1096.707031 C 1312.769531 1167.582031 1373.761719 1233.683594 1424.738281 1308.800781 C 1400.25 1323.476562 1368.398438 1340.9375 1361.710938 1344.511719 C 1318.308594 1367.71875 1269.269531 1332.453125 1272.03125 1301.164062 C 1234.671875 1272.902344 1307.429688 1235.714844 1261.660156 1168.753906 L 1240.609375 1137.960938 C 1221.058594 1109.347656 1220.371094 1069.648438 1241.160156 1046.253906 "/>
<path fill="none" stroke-width="197.532" stroke-linecap="round" stroke-linejoin="round" stroke="rgb(100%, 100%, 100%)" stroke-opacity="1" stroke-miterlimit="2.61313" d="M 12411.601562 9537.460938 L 12416.210938 9529.53125 C 12431.601562 9503.085938 12446.992188 9476.71875 12462.382812 9450.3125 L 12466.992188 9442.421875 L 12467.617188 9441.40625 L 12471.71875 9434.53125 L 12490.195312 9402.890625 L 12492.5 9398.984375 L 12494.804688 9395.039062 C 12557.5 9288.046875 12620.507812 9181.5625 12683.515625 9075.117188 L 12685.195312 9072.226562 L 12689.804688 9064.375 L 12691.796875 9061.054688 L 12694.492188 9056.523438 L 12699.101562 9048.632812 L 12700.117188 9046.992188 L 12703.789062 9040.78125 L 12708.398438 9032.929688 C 13127.695312 8324.179688 13737.617188 7663.164062 14247.382812 6911.992188 C 14002.5 6765.234375 13683.984375 6590.625 13617.109375 6554.882812 C 13183.085938 6322.8125 12692.695312 6675.46875 12720.3125 6988.359375 C 12346.71875 7270.976562 13074.296875 7642.851562 12616.601562 8312.460938 L 12406.09375 8620.390625 C 12210.585938 8906.523438 12203.710938 9303.515625 12411.601562 9537.460938 Z M 12411.601562 9537.460938 " transform="matrix(0.1, 0, 0, -0.1, 0, 2000)"/>
<path fill-rule="evenodd" fill="rgb(18.041992%, 34.910583%, 53.709412%)" fill-opacity="1" d="M 873.1875 1590.867188 L 618.875 1590.867188 C 610.226562 1590.867188 602.566406 1586.644531 597.839844 1580.144531 C 577.796875 1557.527344 561.105469 1535.640625 547.429688 1514.398438 C 622.675781 1367.929688 729.667969 1539.46875 817.808594 1530.789062 C 859.304688 1515.769531 883.5625 1558.585938 873.1875 1590.867188 "/>
<path fill="none" stroke-width="197.537" stroke-linecap="round" stroke-linejoin="round" stroke="rgb(100%, 100%, 100%)" stroke-opacity="1" stroke-miterlimit="2.61313" d="M 8731.875 4091.328125 L 6188.75 4091.328125 C 6102.265625 4091.328125 6025.664062 4133.554688 5978.398438 4198.554688 C 5777.96875 4424.726562 5611.054688 4643.59375 5474.296875 4856.015625 C 6226.757812 6320.703125 7296.679688 4605.3125 8178.085938 4692.109375 C 8593.046875 4842.304688 8835.625 4414.140625 8731.875 4091.328125 Z M 8731.875 4091.328125 " transform="matrix(0.1, 0, 0, -0.1, 0, 2000)"/>
<path fill-rule="evenodd" fill="rgb(18.041992%, 34.910583%, 53.709412%)" fill-opacity="1" d="M 906.652344 876.828125 C 923.039062 860.871094 938.550781 844.710938 952.820312 828.269531 C 949.332031 784.03125 949.148438 743.21875 953.359375 706.980469 C 955.941406 684.75 960.171875 664.058594 966.285156 645.128906 C 995.949219 639.148438 1026.871094 651.691406 1038.390625 692.019531 C 1056.390625 755.011719 985.214844 755.980469 1143.570312 755.960938 C 1237.941406 913.25 962.46875 839.578125 906.652344 876.828125 "/>
<path fill="none" stroke-width="197.537" stroke-linecap="round" stroke-linejoin="round" stroke="rgb(100%, 100%, 100%)" stroke-opacity="1" stroke-miterlimit="2.61313" d="M 9066.523438 11231.71875 C 9230.390625 11391.289062 9385.507812 11552.890625 9528.203125 11717.304688 C 9493.320312 12159.6875 9491.484375 12567.8125 9533.59375 12930.195312 C 9559.414062 13152.5 9601.71875 13359.414062 9662.851562 13548.710938 C 9959.492188 13608.515625 10268.710938 13483.085938 10383.90625 13079.804688 C 10563.90625 12449.882812 9852.148438 12440.195312 11435.703125 12440.390625 C 12379.414062 10867.5 9624.6875 11604.21875 9066.523438 11231.71875 Z M 9066.523438 11231.71875 " transform="matrix(0.1, 0, 0, -0.1, 0, 2000)"/>
<path fill-rule="evenodd" fill="rgb(18.041992%, 34.910583%, 53.709412%)" fill-opacity="1" d="M 1224.769531 597.019531 C 1243.148438 597.019531 1258.050781 611.910156 1258.050781 630.289062 C 1258.050781 648.671875 1243.148438 663.570312 1224.769531 663.570312 C 1206.398438 663.570312 1191.5 648.671875 1191.5 630.289062 C 1191.5 611.910156 1206.398438 597.019531 1224.769531 597.019531 "/>
<path fill="none" stroke-width="197.537" stroke-linecap="round" stroke-linejoin="round" stroke="rgb(18.041992%, 34.910583%, 53.709412%)" stroke-opacity="1" stroke-miterlimit="2.61313" d="M 12247.695312 14029.804688 C 12431.484375 14029.804688 12580.507812 13880.898438 12580.507812 13697.109375 C 12580.507812 13513.28125 12431.484375 13364.296875 12247.695312 13364.296875 C 12063.984375 13364.296875 11915 13513.28125 11915 13697.109375 C 11915 13880.898438 12063.984375 14029.804688 12247.695312 14029.804688 Z M 12247.695312 14029.804688 " transform="matrix(0.1, 0, 0, -0.1, 0, 2000)"/>
</svg>
